<svg width="193" height="46" viewBox="0 0 193 46" fill="none" xmlns="http://www.w3.org/2000/svg">
<g clip-path="url(#clip0_8_2)">
<path d="M32.3555 6.96053H28.5431V3.30373H17.2814V10.1634H32.3555V13.8958H44.169C44.169 13.8958 46.0251 13.8958 46 15.6612C45.9749 17.4265 46 29.9353 46 29.9353C46 29.9353 46 32.3311 44.169 32.3311H33.6848L32.3555 26.909C32.3555 26.909 32.3806 42.2928 32.3555 44.1338C32.3304 45.9748 30.8506 45.9748 30.8506 45.9748H15.6009C13.7699 45.9748 13.7699 43.5033 13.7699 43.5033V32.3311C13.7699 32.3311 4.96619 32.3311 2.4831 32.2303C0 32.1294 0 29.9353 0 29.9353L0.0501636 15.6612C0.0501636 15.6612 0.0501636 13.8958 2.43293 13.8958H12.3402L13.7699 18.8388V2.57237C13.7699 0.025219 15.6009 0.025219 15.6009 0.025219H30.8506C30.8506 0.025219 32.3555 0.025219 32.3555 2.47149V2.57237V6.96053Z" fill="url(#paint0_linear_8_2)"/>
<mask id="mask0_8_2" style="mask-type:luminance" maskUnits="userSpaceOnUse" x="20" y="19" width="6" height="10">
<path d="M20.6674 19.1162H25.4329V28.6239H20.6674V19.1162Z" fill="white"/>
</mask>
<g mask="url(#mask0_8_2)">
<path d="M23.0502 23.9079C21.7342 23.9079 20.6674 22.8352 20.6674 21.5121C20.6674 20.1889 21.7342 19.1162 23.0502 19.1162C24.3661 19.1162 25.4329 20.1889 25.4329 21.5121C25.4329 22.8352 24.3661 23.9079 23.0502 23.9079Z" fill="black"/>
<path d="M25.0692 28.6239L24.4422 22.8991H21.6581L21.0311 28.6239H25.0692Z" fill="black"/>
</g>
</g>
<path d="M62.448 35V11.098H65.712L75.402 26.602H73.532L83.188 11.098H86.452V35H81.862V19.02L82.746 19.292L76.014 30.104H72.886L66.154 19.292L67.072 19.02V35H62.448ZM98.7127 35.34C96.9901 35.34 95.4601 34.9773 94.1227 34.252C92.7854 33.504 91.7201 32.484 90.9267 31.192C90.1561 29.9 89.7707 28.4267 89.7707 26.772C89.7707 25.14 90.1447 23.6893 90.8927 22.42C91.6634 21.128 92.7061 20.108 94.0207 19.36C95.3354 18.5893 96.7974 18.204 98.4067 18.204C99.9934 18.204 101.387 18.5667 102.589 19.292C103.813 19.9947 104.765 20.9693 105.445 22.216C106.147 23.44 106.499 24.834 106.499 26.398C106.499 26.6927 106.476 26.9987 106.431 27.316C106.408 27.6107 106.351 27.9507 106.261 28.336L92.4567 28.37V25.038L104.187 25.004L102.385 26.398C102.339 25.4233 102.158 24.6073 101.841 23.95C101.546 23.2927 101.104 22.794 100.515 22.454C99.9481 22.0913 99.2454 21.91 98.4067 21.91C97.5227 21.91 96.7521 22.114 96.0947 22.522C95.4374 22.9073 94.9274 23.4627 94.5647 24.188C94.2247 24.8907 94.0547 25.7293 94.0547 26.704C94.0547 27.7013 94.2361 28.574 94.5987 29.322C94.9841 30.0473 95.5281 30.614 96.2307 31.022C96.9334 31.4073 97.7494 31.6 98.6787 31.6C99.5174 31.6 100.277 31.464 100.957 31.192C101.637 30.8973 102.226 30.4667 102.725 29.9L105.343 32.518C104.549 33.4473 103.575 34.15 102.419 34.626C101.285 35.102 100.05 35.34 98.7127 35.34ZM116.189 35.34C114.671 35.34 113.311 34.966 112.109 34.218C110.908 33.47 109.956 32.45 109.253 31.158C108.573 29.866 108.233 28.4153 108.233 26.806C108.233 25.174 108.573 23.712 109.253 22.42C109.956 21.128 110.897 20.108 112.075 19.36C113.277 18.612 114.648 18.238 116.189 18.238C117.368 18.238 118.422 18.476 119.351 18.952C120.303 19.428 121.063 20.0967 121.629 20.958C122.219 21.7967 122.536 22.7487 122.581 23.814V29.662C122.536 30.7273 122.23 31.6907 121.663 32.552C121.097 33.4133 120.337 34.0933 119.385 34.592C118.433 35.0907 117.368 35.34 116.189 35.34ZM116.937 31.226C117.776 31.226 118.501 31.0447 119.113 30.682C119.748 30.2967 120.235 29.7753 120.575 29.118C120.938 28.438 121.119 27.656 121.119 26.772C121.119 25.9107 120.938 25.1513 120.575 24.494C120.235 23.814 119.748 23.2927 119.113 22.93C118.501 22.5447 117.787 22.352 116.971 22.352C116.133 22.352 115.396 22.5447 114.761 22.93C114.149 23.3153 113.662 23.8367 113.299 24.494C112.959 25.1513 112.789 25.9107 112.789 26.772C112.789 27.656 112.959 28.438 113.299 29.118C113.662 29.7753 114.161 30.2967 114.795 30.682C115.43 31.0447 116.144 31.226 116.937 31.226ZM125.301 35H120.881V30.58L121.595 26.568L120.847 22.624V10.418H125.301V35ZM137.368 35L127.95 11.098H132.948L140.224 30.444H138.286L145.63 11.098H150.56L141.04 35H137.368ZM153.214 35V18.578H157.702V35H153.214ZM155.458 15.926C154.733 15.926 154.132 15.688 153.656 15.212C153.18 14.7133 152.942 14.1013 152.942 13.376C152.942 12.6733 153.18 12.0727 153.656 11.574C154.132 11.0753 154.733 10.826 155.458 10.826C156.206 10.826 156.807 11.0753 157.26 11.574C157.736 12.0727 157.974 12.6733 157.974 13.376C157.974 14.1013 157.736 14.7133 157.26 15.212C156.807 15.688 156.206 15.926 155.458 15.926ZM164.062 35V11.744H168.516V35H164.062ZM160.22 22.488V18.578H172.358V22.488H160.22ZM181.332 35.34C179.836 35.34 178.488 34.966 177.286 34.218C176.085 33.47 175.144 32.45 174.464 31.158C173.784 29.866 173.444 28.4153 173.444 26.806C173.444 25.174 173.784 23.712 174.464 22.42C175.144 21.128 176.085 20.108 177.286 19.36C178.488 18.612 179.836 18.238 181.332 18.238C182.511 18.238 183.565 18.476 184.494 18.952C185.424 19.428 186.16 20.0967 186.704 20.958C187.271 21.7967 187.577 22.7487 187.622 23.814V29.73C187.577 30.818 187.271 31.7813 186.704 32.62C186.16 33.4587 185.424 34.1273 184.494 34.626C183.565 35.102 182.511 35.34 181.332 35.34ZM182.148 31.226C183.395 31.226 184.404 30.818 185.174 30.002C185.945 29.1633 186.33 28.0867 186.33 26.772C186.33 25.9107 186.149 25.1513 185.786 24.494C185.446 23.814 184.959 23.2927 184.324 22.93C183.712 22.5447 182.987 22.352 182.148 22.352C181.332 22.352 180.607 22.5447 179.972 22.93C179.36 23.2927 178.873 23.814 178.51 24.494C178.17 25.1513 178 25.9107 178 26.772C178 27.656 178.17 28.438 178.51 29.118C178.873 29.7753 179.36 30.2967 179.972 30.682C180.607 31.0447 181.332 31.226 182.148 31.226ZM186.092 35V30.58L186.806 26.568L186.092 22.624V18.578H190.512V35H186.092Z" fill="#000B6D"/>
<g clip-path="url(#clip1_8_2)">
<path d="M32.3555 6.96053H28.5431V3.30373H17.2814V10.1634H32.3555V13.8958H44.169C44.169 13.8958 46.0251 13.8958 46 15.6612C45.9749 17.4265 46 29.9353 46 29.9353C46 29.9353 46 32.3311 44.169 32.3311H33.6848L32.3555 26.909C32.3555 26.909 32.3806 42.2928 32.3555 44.1338C32.3304 45.9748 30.8506 45.9748 30.8506 45.9748H15.6009C13.7699 45.9748 13.7699 43.5033 13.7699 43.5033V32.3311C13.7699 32.3311 4.96619 32.3311 2.4831 32.2303C0 32.1294 0 29.9353 0 29.9353L0.0501636 15.6612C0.0501636 15.6612 0.0501636 13.8958 2.43293 13.8958H12.3402L13.7699 18.8388V2.57237C13.7699 0.025219 15.6009 0.025219 15.6009 0.025219H30.8506C30.8506 0.025219 32.3555 0.025219 32.3555 2.47149V2.57237V6.96053Z" fill="url(#paint1_linear_8_2)"/>
<mask id="mask1_8_2" style="mask-type:luminance" maskUnits="userSpaceOnUse" x="21" y="18" width="5" height="10">
<path d="M21 18H25.7655V27.5077H21V18Z" fill="white"/>
</mask>
<g mask="url(#mask1_8_2)">
<path d="M23.3828 22.7917C22.0668 22.7917 21 21.719 21 20.3958C21 19.0727 22.0668 18 23.3828 18C24.6987 18 25.7655 19.0727 25.7655 20.3958C25.7655 21.719 24.6987 22.7917 23.3828 22.7917Z" fill="white"/>
<path d="M25.4018 27.5077L24.7748 21.7829H21.9907L21.3637 27.5077H25.4018Z" fill="white"/>
</g>
</g>
<defs>
<linearGradient id="paint0_linear_8_2" x1="33.9106" y1="0.731359" x2="46.0723" y2="14.0062" gradientUnits="userSpaceOnUse">
<stop stop-color="#FF0000"/>
<stop offset="0.00964043" stop-color="white"/>
<stop offset="0.992693" stop-color="white"/>
<stop offset="0.995977" stop-color="#FF0000"/>
<stop offset="0.99952" stop-color="#FF0000"/>
<stop offset="1" stop-color="#FF0000"/>
</linearGradient>
<linearGradient id="paint1_linear_8_2" x1="33.9106" y1="0.731359" x2="46.0723" y2="14.0062" gradientUnits="userSpaceOnUse">
<stop offset="0.0768231" stop-color="#FF0000"/>
<stop offset="0.211538" stop-color="#000B6D"/>
<stop offset="0.899038" stop-color="#000B6D"/>
<stop offset="0.995877" stop-color="#FF0000"/>
<stop offset="0.995977" stop-color="#FF0000"/>
<stop offset="0.99952" stop-color="#FF0000"/>
</linearGradient>
<clipPath id="clip0_8_2">
<rect width="46" height="46" fill="white"/>
</clipPath>
<clipPath id="clip1_8_2">
<rect width="46" height="46" fill="white"/>
</clipPath>
</defs>
</svg>
